<svg xmlns="http://www.w3.org/2000/svg" width="16" height="16">
    <path d="M 2 0 C 0.89199036 0 0 0.89199036 0 2 L 0 14 C 0 15.10801 0.89199036 16 2 16 L 10 16 L 10 10 L 16 10 L 16 2 C 16 0.89199036 15.10801 0 14 0 L 2 0 z M 2 2 L 8 2 L 8 8 L 2 8 L 2 2 z M 11 2 L 13 2 C 13.55401 2 14 2.4459904 14 3 L 14 7 C 14 7.5540096 13.55401 8 13 8 L 11 8 C 10.44599 8 10 7.5540096 10 7 L 10 3 C 10 2.4459904 10.44599 2 11 2 z M 3 3 L 3 7 L 7 7 L 7 3 L 3 3 z M 12 5 C 11.446 5 11 5.446 11 6 C 11 6.554 11.446 7 12 7 C 12.554 7 13 6.554 13 6 C 13 5.446 12.554 5 12 5 z M 11 11 L 11 16 L 16 16 L 16 11 L 11 11 z M 3 12 C 3.554 12 4 12.446 4 13 C 4 13.554 3.554 14 3 14 C 2.446 14 2 13.554 2 13 C 2 12.446 2.446 12 3 12 z M 12 12 L 13 12 L 13 13 L 14 13 L 14 12 L 15 12 L 15 14 L 14 14 L 14 15 L 13 15 L 13 14 L 12 14 L 12 12 z " fill="#c0bfbc" />
</svg>
