<?xml version="1.0" encoding="UTF-8"?>
<svg version="1.1" viewBox="0 0 128 128" xmlns="http://www.w3.org/2000/svg">
<defs>
<linearGradient id="c" x1="3" x2="29" y1="15" y2="15" gradientTransform="scale(4)" gradientUnits="userSpaceOnUse">
<stop stop-color="#f6f5f4" offset="0"/>
<stop stop-color="#deddda" offset="1"/>
</linearGradient>
<linearGradient id="d" x1="3" x2="29" y1="16" y2="16" gradientTransform="scale(4)" gradientUnits="userSpaceOnUse">
<stop stop-color="#c0bfbc" offset="0"/>
<stop stop-color="#deddda" offset=".042197"/>
<stop stop-color="#c0bfbc" offset=".068461"/>
<stop stop-color="#c0bfbc" offset=".92578"/>
<stop stop-color="#deddda" offset=".95767"/>
<stop stop-color="#c0bfbc" offset="1"/>
</linearGradient>
</defs>
<rect x="12" y="12" width="104" height="104" ry="8" fill="url(#d)"/>
<rect x="12" y="12" width="104" height="96" ry="8" fill="url(#c)"/>
<rect x="20" y="20" width="56" height="56" ry="0" fill="#241f31"/>
<rect x="24" y="24" width="48" height="48" fill="#33d17a"/>
<rect x="28" y="28" width="8" height="8" fill="#26a269"/>
<rect x="36" y="28" width="8" height="8" fill="#26a269"/>
<rect x="44" y="28" width="8" height="8" fill="#26a269"/>
<rect x="52" y="28" width="8" height="8" fill="#26a269"/>
<rect x="28" y="36" width="8" height="8" fill="#26a269"/>
<rect x="44" y="36" width="8" height="8" fill="#26a269"/>
<rect x="60" y="36" width="8" height="8" fill="#26a269"/>
<rect x="60" y="28" width="8" height="8" fill="#26a269"/>
<rect x="28" y="44" width="8" height="8" fill="#26a269"/>
<rect x="60" y="44" width="8" height="8" fill="#26a269"/>
<rect x="60" y="52" width="8" height="8" fill="#26a269"/>
<rect x="52" y="52" width="8" height="8" fill="#26a269"/>
<rect x="36" y="52" width="8" height="8" fill="#26a269"/>
<rect x="28" y="52" width="8" height="8" fill="#26a269"/>
<rect x="28" y="60" width="8" height="8" fill="#26a269"/>
<rect x="36" y="60" width="8" height="8" fill="#26a269"/>
<rect x="44" y="60" width="8" height="8" fill="#26a269"/>
<rect x="52" y="60" width="8" height="8" fill="#26a269"/>
<rect x="60" y="60" width="8" height="8" fill="#26a269"/>
<path d="m44 72 12-48h-32v48z" fill="#fff" opacity=".2"/>
<rect x="84" y="20" width="24" height="52" ry="4" fill="#9a9996"/>
<rect x="84" y="24" width="24" height="52" ry="4" fill="#c0bfbc"/>
<rect x="84" y="52" width="24" height="24" ry="4" fill="#1a5fb4"/>
<rect x="84" y="44" width="24" height="28" ry="4" fill="#3584e4"/>
<rect x="20" y="88" width="12" height="12" ry="4" fill="#a51d2d"/>
<rect x="20" y="84" width="12" height="12" ry="4" fill="#e01b24"/>
<rect x="96" y="88" width="12" height="12" ry="4" fill="#26a269"/>
<rect x="96" y="84" width="12" height="12" ry="4" fill="#33d17a"/>
<rect x="76" y="88" width="12" height="12" ry="4" fill="#e5a50a"/>
<rect x="76" y="84" width="12" height="12" ry="4" fill="#f6d32d"/>
</svg>
