/* XPM */
static char * suseicon_xpm[] = {
"16 16 17 1",
" 	c None",
".	c #538C0E",
"+	c #EEEADE",
"@	c #E2EBDA",
"#	c #8AAE82",
"$	c #87B16F",
"%	c #7CAA57",
"&	c #68A043",
"*	c #5D9732",
"=	c #609708",
"-	c #EEEEE6",
";	c #FCFDFC",
">	c #9BBA7F",
",	c #60952A",
"'	c #A6BE72",
")	c #B2C998",
"!	c #6A9D08",
"     ;;;;;;     ",
"   ;;;)$%);;;   ",
"  ;;)=*,&,*);;  ",
" ;;!==,@--#%);; ",
" ;'!!.)>%%-$$); ",
";-!!!!@*%@&-,$-;",
";)!!!!-&$%$@=.);",
";=...=$@&&@&=!,;",
";=';@&,&-@..=,$;",
";)!$)@@>&&%>@@);",
";-!==.%)@@+@&.);",
" ;.!=!=....=,#; ",
" ;;=!=!====.$;; ",
"  ;;.!.!==,';;  ",
"   ;;-)#>)-;;   ",
"     ;;;;;;     "};
